<?xml version="1.0" standalone="no"?>
<!DOCTYPE svg PUBLIC "-//W3C//DTD SVG 20010904//EN"
 "http://www.w3.org/TR/2001/REC-SVG-20010904/DTD/svg10.dtd">
<svg version="1.0" xmlns="http://www.w3.org/2000/svg"
 width="2084.000000pt" height="2084.000000pt" viewBox="0 0 2084.000000 2084.000000"
 preserveAspectRatio="xMidYMid meet">
<metadata>
Created by potrace 1.11, written by Peter Selinger 2001-2013
</metadata>
<g transform="translate(0.000000,2084.000000) scale(0.100000,-0.100000)"
fill="#000000" stroke="none">
<path d="M7984 12343 c-17 -27 -41 -66 -52 -88 -42 -83 -37 -80 -138 -57 -119
28 -195 36 -344 36 -114 1 -156 -3 -275 -20 -108 -16 -309 -88 -424 -151 -404
-221 -670 -576 -762 -1021 -24 -115 -32 -347 -16 -487 28 -253 153 -546 309
-728 l33 -38 163 -1 c90 0 165 2 167 4 3 3 -34 45 -81 94 -47 49 -105 118
-129 154 -84 127 -172 326 -190 430 -3 19 -8 42 -10 50 -8 29 -18 156 -18 227
1 183 33 346 97 493 104 241 344 494 581 613 46 22 179 74 215 82 147 36 173
39 350 39 159 0 192 -3 237 -19 l52 -20 -34 -67 c-39 -76 -43 -98 -17 -99 74
-3 425 2 497 7 159 11 177 12 180 16 5 5 -5 25 -88 167 -37 62 -67 115 -67
116 0 2 -47 80 -149 244 -24 39 -46 71 -50 71 -3 0 -20 -21 -37 -47z"/>
<path d="M15808 11845 c-2 -1 -48 -6 -103 -9 -146 -10 -219 -17 -325 -32 -71
-10 -185 -46 -248 -77 -131 -65 -211 -200 -236 -397 -24 -185 -24 -1002 -1
-1170 27 -197 87 -307 210 -386 102 -65 220 -94 475 -119 254 -24 1200 -24
1430 0 104 11 240 39 305 62 83 30 130 59 181 110 40 41 99 156 108 213 19
115 22 181 17 391 l-1 67 -330 -1 -330 0 -1 -41 c-3 -216 -48 -257 -295 -273
-134 -8 -667 -8 -784 0 -97 7 -183 23 -221 43 -36 18 -85 76 -98 116 -21 65
-28 186 -25 418 1 129 5 249 9 265 26 140 48 188 99 223 73 50 140 57 561 57
621 0 693 -15 713 -146 5 -31 8 -69 7 -83 0 -14 4 -27 10 -27 26 -3 631 -5
641 -2 12 4 11 184 -1 301 -9 86 -40 196 -71 248 -76 130 -225 206 -449 230
-27 3 -61 8 -75 11 -25 6 -1166 14 -1172 8z"/>
<path d="M540 10744 l0 -1074 23 -1 c12 0 159 -1 327 -1 l305 -1 2 249 c1 137
2 256 2 264 1 13 74 15 594 15 678 1 756 4 916 41 240 55 366 216 398 510 10
87 10 427 1 514 -26 244 -91 369 -238 457 -45 27 -182 70 -246 77 -27 4 -60 9
-74 13 -14 3 -472 7 -1017 9 l-993 2 0 -1074z m1824 506 c76 -38 99 -100 98
-262 -1 -96 -15 -148 -49 -189 -54 -63 -42 -62 -655 -66 l-558 -3 -1 38 c0 20
-1 143 -2 273 l-2 237 560 -2 560 -1 49 -25z"/>
<path d="M3206 11812 c-2 -4 -3 -487 -3 -1074 l0 -1068 31 -1 c51 -1 600 -1
614 0 9 1 12 62 12 271 l0 270 58 0 c491 5 1094 -1 1138 -10 56 -12 91 -39
119 -91 22 -41 26 -72 32 -259 3 -96 7 -177 9 -179 3 -4 416 -5 600 -2 l40 1
-1 253 c-1 160 -6 274 -14 312 -31 146 -115 226 -261 250 -57 9 -86 24 -50 25
69 3 143 34 206 85 117 96 140 187 138 550 -1 310 -31 430 -132 529 -48 47
-155 109 -207 120 -16 4 -41 9 -55 13 -34 8 -2269 13 -2274 5z m1915 -554 c73
-32 102 -100 100 -238 -1 -89 -4 -112 -21 -166 -12 -37 -63 -80 -106 -90 -16
-3 -300 -8 -631 -9 l-603 -4 0 263 0 264 613 -2 c532 -2 617 -4 648 -18z"/>
<path d="M9020 10744 l0 -1074 28 -1 c136 -4 1840 1 1947 6 137 6 162 8 275
20 162 18 299 76 388 164 117 117 164 259 189 566 14 179 6 715 -12 805 -3 14
-8 45 -11 69 -15 112 -91 266 -166 338 -41 39 -140 100 -188 114 -86 26 -180
45 -280 56 -25 3 -523 6 -1107 8 l-1063 3 0 -1074z m1960 516 c120 -27 178
-89 207 -221 19 -86 26 -443 11 -552 -26 -191 -101 -246 -362 -263 -69 -5
-1041 -9 -1151 -5 -20 1 -20 7 -19 529 1 290 2 528 3 528 0 1 283 1 629 -1
458 -2 642 -6 682 -15z"/>
<path d="M11973 11052 c2 -422 6 -776 9 -787 3 -11 9 -49 13 -85 10 -88 48
-206 86 -263 85 -129 248 -216 454 -242 22 -3 56 -8 75 -10 244 -33 1212 -39
1455 -10 296 36 390 70 506 185 118 116 153 216 176 498 3 37 7 385 10 773 l5
706 -329 0 -330 0 0 -581 c-1 -737 -7 -825 -61 -913 -64 -102 -191 -126 -667
-127 -274 0 -440 10 -521 30 -32 8 -67 16 -78 19 -32 8 -86 55 -105 93 -40 81
-42 110 -45 847 l-2 630 -328 2 -328 1 5 -766z"/>
<path d="M17695 11811 c-2 -4 -3 -127 -4 -274 l0 -267 32 -1 c18 0 232 -1 477
-2 l445 -2 0 -797 0 -798 35 -1 c38 -1 548 0 616 1 l41 0 1 768 c0 422 1 781
1 798 l1 31 433 1 c237 0 452 1 477 1 l45 1 -2 252 c-1 139 -2 263 -2 274 l-1
21 -1295 0 c-713 0 -1298 -3 -1300 -6z"/>
<path d="M8268 11722 c-16 -2 -28 -7 -28 -11 0 -4 23 -29 51 -56 51 -50 179
-207 179 -220 0 -3 11 -21 24 -38 63 -85 143 -297 170 -452 13 -76 15 -341 3
-390 -3 -11 -14 -58 -25 -105 -63 -262 -212 -496 -429 -670 -222 -179 -456
-257 -788 -265 -90 -1 -144 5 -222 26 -51 14 -55 31 -18 88 35 56 41 87 18 92
-15 4 -562 3 -643 0 -57 -3 -56 -12 32 -160 45 -78 88 -149 93 -159 25 -44
123 -203 156 -254 42 -65 38 -67 94 37 20 39 48 84 61 102 l24 31 52 -14 c278
-74 579 -62 853 33 383 133 671 382 852 738 108 211 155 407 156 645 1 160 -3
208 -28 335 -42 216 -167 476 -298 621 l-43 47 -134 1 c-74 0 -147 0 -162 -2z"/>
<path d="M11427 9434 c-1 -1 -63 -4 -137 -7 -229 -10 -319 -41 -367 -127 -37
-66 -46 -141 -46 -375 -1 -307 15 -367 114 -430 77 -49 167 -60 524 -59 420 0
528 21 594 112 32 45 42 104 47 282 l5 170 -339 0 -340 0 2 -97 1 -98 160 -2
c88 -1 175 -2 194 -2 l34 -1 -6 -47 c-9 -79 -25 -83 -343 -82 -355 1 -348 -5
-348 254 -1 263 -6 259 334 259 315 1 336 -4 346 -65 l7 -39 148 0 149 0 -5
73 c-10 131 -38 188 -114 226 -33 17 -55 24 -120 36 -56 10 -483 27 -494 19z"/>
<path d="M9372 9407 c-6 -7 -33 -57 -62 -112 -29 -55 -88 -165 -130 -245 -43
-80 -103 -194 -135 -255 -62 -118 -124 -234 -161 -302 -21 -39 -22 -43 -6 -43
29 -1 286 -1 307 -1 16 1 31 21 60 81 38 79 40 80 77 81 53 0 145 0 391 -1
l212 -1 39 -79 c30 -61 44 -80 60 -80 303 -7 335 -5 307 26 -4 5 -48 86 -96
179 -48 94 -105 202 -125 240 -20 39 -65 124 -100 190 -34 66 -88 168 -118
226 l-56 106 -227 1 c-161 0 -231 -3 -237 -11z m355 -402 l91 -180 -201 1
c-111 1 -207 2 -213 3 -7 0 29 82 80 181 89 177 92 180 121 178 28 -3 36 -14
122 -183z"/>
<path d="M12799 9411 c0 -3 -1 -221 -2 -484 -2 -418 0 -477 13 -477 35 -1 199
-2 247 -1 l52 1 0 484 -1 483 -154 0 c-85 0 -154 -2 -155 -6z"/>
<path d="M13769 9416 c-1 0 -2 -218 -3 -483 l-1 -483 60 -1 c95 0 898 -1 920
0 19 1 20 7 18 108 -1 60 -2 115 -2 124 -1 15 -32 17 -318 17 -175 0 -329 1
-343 1 l-25 1 0 358 0 357 -152 1 c-84 1 -154 1 -154 0z"/>
<path d="M15362 9411 c-15 -9 -13 -961 2 -962 10 -1 246 0 286 1 13 0 15 57
13 462 -1 255 -2 473 -2 485 -1 21 -4 21 -145 21 -80 -1 -149 -4 -154 -7z"/>
<path d="M16250 9294 l0 -124 215 0 215 0 1 -22 c0 -13 1 -175 1 -360 l0 -338
27 -1 c120 -3 273 0 278 5 3 3 6 166 6 361 l-1 355 217 0 217 0 -1 123 0 122
-588 1 -587 2 0 -124z"/>
<path d="M17980 9411 c0 -3 12 -19 28 -36 15 -16 56 -64 92 -105 36 -41 68
-77 71 -80 4 -3 86 -94 182 -203 l175 -198 0 -157 c0 -86 0 -164 1 -172 1 -15
11 -15 271 -11 l35 1 1 173 0 172 31 35 c83 94 477 561 486 576 5 9 -43 12
-185 12 l-192 -1 -125 -161 c-69 -88 -130 -166 -136 -173 -5 -7 -16 -19 -23
-28 -7 -8 -18 -13 -23 -10 -8 5 -147 175 -274 335 l-30 38 -192 0 c-106 0
-193 -3 -193 -7z"/>
</g>
</svg>
